<svg width="163" height="87" viewBox="0 0 163 87" fill="none" xmlns="http://www.w3.org/2000/svg">
<path d="M81.6894 35.5909H67.8377C67.671 35.5931 67.5054 35.5618 67.3509 35.4988C67.1964 35.4359 67.0561 35.3425 66.9382 35.2242C66.8202 35.106 66.7271 34.9652 66.6643 34.8103C66.6015 34.6554 66.5703 34.4894 66.5725 34.3222V20.4318C66.5725 16.4114 68.1652 12.5556 71.0001 9.71272C73.8351 6.86983 77.6802 5.27272 81.6894 5.27272V5.27272C83.6746 5.27272 85.6404 5.66482 87.4744 6.42664C89.3085 7.18845 90.975 8.30506 92.3787 9.71272C93.7825 11.1204 94.896 12.7915 95.6557 14.6307C96.4154 16.4699 96.8064 18.4411 96.8064 20.4318V20.4318C96.8064 22.4225 96.4154 24.3938 95.6557 26.2329C94.896 28.0721 93.7825 29.7433 92.3787 31.1509C90.975 32.5586 89.3085 33.6752 87.4744 34.437C85.6404 35.1988 83.6746 35.5909 81.6894 35.5909V35.5909Z" stroke="#00B37E" stroke-width="2" stroke-linecap="round" stroke-linejoin="round"/>
<path d="M76.4314 18.4545H86.2903" stroke="#996DFF" stroke-width="2" stroke-linecap="round" stroke-linejoin="round"/>
<path d="M76.4314 23.7273H86.2903" stroke="#996DFF" stroke-width="2" stroke-linecap="round" stroke-linejoin="round"/>
<path d="M18.5739 63.6364C18.446 62.5568 17.9276 61.7188 17.0185 61.1222C16.1094 60.5256 14.9943 60.2273 13.6733 60.2273C12.7074 60.2273 11.8622 60.3835 11.1378 60.696C10.4205 61.0085 9.85938 61.4382 9.45455 61.9851C9.05682 62.532 8.85795 63.1534 8.85795 63.8494C8.85795 64.4318 8.99645 64.9325 9.27344 65.3516C9.55753 65.7635 9.91974 66.108 10.3601 66.3849C10.8004 66.6548 11.2621 66.8786 11.745 67.0561C12.228 67.2266 12.6719 67.3651 13.0767 67.4716L15.2926 68.0682C15.8608 68.2173 16.4929 68.4233 17.1889 68.6861C17.892 68.9489 18.5632 69.3075 19.2024 69.7621C19.8487 70.2095 20.3814 70.7848 20.8004 71.4879C21.2195 72.1911 21.429 73.054 21.429 74.0767C21.429 75.2557 21.12 76.321 20.5021 77.2727C19.8913 78.2244 18.9964 78.9808 17.8175 79.5419C16.6456 80.103 15.2216 80.3835 13.5455 80.3835C11.983 80.3835 10.63 80.1314 9.48651 79.6271C8.35014 79.1229 7.45526 78.4197 6.80185 77.5178C6.15554 76.6158 5.78977 75.5682 5.70455 74.375H8.43182C8.50284 75.1989 8.77983 75.8807 9.26278 76.4205C9.75284 76.9531 10.3707 77.3509 11.1165 77.6136C11.8693 77.8693 12.679 77.9972 13.5455 77.9972C14.554 77.9972 15.4595 77.8338 16.2621 77.5071C17.0646 77.1733 17.7003 76.7116 18.169 76.1222C18.6378 75.5256 18.8722 74.8295 18.8722 74.0341C18.8722 73.3097 18.6697 72.7202 18.2649 72.2656C17.8601 71.8111 17.3274 71.4418 16.6669 71.1577C16.0064 70.8736 15.2926 70.625 14.5256 70.4119L11.8409 69.6449C10.1364 69.1548 8.78693 68.4553 7.79261 67.5462C6.7983 66.6371 6.30114 65.4474 6.30114 63.9773C6.30114 62.7557 6.63139 61.6903 7.2919 60.7812C7.95952 59.8651 8.8544 59.1548 9.97656 58.6506C11.1058 58.1392 12.3665 57.8835 13.7585 57.8835C15.1648 57.8835 16.4148 58.1357 17.5085 58.6399C18.6023 59.1371 19.4688 59.8189 20.108 60.6854C20.7543 61.5518 21.0952 62.5355 21.1307 63.6364H18.5739ZM32.2928 80.3409C30.7161 80.3409 29.356 79.9929 28.2125 79.2969C27.0762 78.5938 26.199 77.6136 25.5811 76.3565C24.9703 75.0923 24.665 73.6222 24.665 71.946C24.665 70.2699 24.9703 68.7926 25.5811 67.5142C26.199 66.2287 27.0584 65.2273 28.1593 64.5099C29.2672 63.7855 30.5598 63.4233 32.0371 63.4233C32.8894 63.4233 33.731 63.5653 34.562 63.8494C35.3929 64.1335 36.1493 64.5952 36.8311 65.2344C37.513 65.8665 38.0563 66.7045 38.4611 67.7486C38.8659 68.7926 39.0684 70.0781 39.0684 71.6051V72.6705H26.4547V70.4972H36.5115C36.5115 69.5739 36.3269 68.75 35.9576 68.0256C35.5953 67.3011 35.0769 66.7294 34.4022 66.3104C33.7346 65.8913 32.9462 65.6818 32.0371 65.6818C31.0357 65.6818 30.1692 65.9304 29.4377 66.4276C28.7132 66.9176 28.1557 67.5568 27.7651 68.3452C27.3745 69.1335 27.1792 69.9787 27.1792 70.8807V72.3295C27.1792 73.5653 27.3922 74.6129 27.8184 75.4723C28.2516 76.3246 28.8517 76.9744 29.6188 77.4219C30.3858 77.8622 31.2772 78.0824 32.2928 78.0824C32.9533 78.0824 33.5499 77.9901 34.0826 77.8054C34.6223 77.6136 35.0875 77.3295 35.4782 76.9531C35.8688 76.5696 36.1706 76.0937 36.3837 75.5256L38.8127 76.2074C38.557 77.0312 38.1273 77.7557 37.5236 78.3807C36.9199 78.9986 36.1742 79.4815 35.2864 79.8295C34.3986 80.1705 33.4007 80.3409 32.2928 80.3409ZM45.4071 58.1818V80H42.8929V58.1818H45.4071ZM56.8729 80.3409C55.2962 80.3409 53.9361 79.9929 52.7926 79.2969C51.6562 78.5938 50.7791 77.6136 50.1612 76.3565C49.5504 75.0923 49.245 73.6222 49.245 71.946C49.245 70.2699 49.5504 68.7926 50.1612 67.5142C50.7791 66.2287 51.6385 65.2273 52.7393 64.5099C53.8473 63.7855 55.1399 63.4233 56.6172 63.4233C57.4695 63.4233 58.3111 63.5653 59.142 63.8494C59.973 64.1335 60.7294 64.5952 61.4112 65.2344C62.093 65.8665 62.6364 66.7045 63.0412 67.7486C63.446 68.7926 63.6484 70.0781 63.6484 71.6051V72.6705H51.0348V70.4972H61.0916C61.0916 69.5739 60.907 68.75 60.5376 68.0256C60.1754 67.3011 59.657 66.7294 58.9822 66.3104C58.3146 65.8913 57.5263 65.6818 56.6172 65.6818C55.6158 65.6818 54.7493 65.9304 54.0178 66.4276C53.2933 66.9176 52.7358 67.5568 52.3452 68.3452C51.9545 69.1335 51.7592 69.9787 51.7592 70.8807V72.3295C51.7592 73.5653 51.9723 74.6129 52.3984 75.4723C52.8317 76.3246 53.4318 76.9744 54.1989 77.4219C54.9659 77.8622 55.8572 78.0824 56.8729 78.0824C57.5334 78.0824 58.13 77.9901 58.6626 77.8054C59.2024 77.6136 59.6676 77.3295 60.0582 76.9531C60.4489 76.5696 60.7507 76.0937 60.9638 75.5256L63.3928 76.2074C63.1371 77.0312 62.7074 77.7557 62.1037 78.3807C61.5 78.9986 60.7543 79.4815 59.8665 79.8295C58.9787 80.1705 57.9808 80.3409 56.8729 80.3409ZM74.1207 80.3409C72.5866 80.3409 71.2656 79.9787 70.1577 79.2543C69.0497 78.5298 68.1974 77.532 67.6009 76.2607C67.0043 74.9893 66.706 73.5369 66.706 71.9034C66.706 70.2415 67.0114 68.7749 67.6222 67.5036C68.2401 66.2251 69.0994 65.2273 70.2003 64.5099C71.3082 63.7855 72.6009 63.4233 74.0781 63.4233C75.2287 63.4233 76.2656 63.6364 77.1889 64.0625C78.1122 64.4886 78.8686 65.0852 79.4581 65.8523C80.0476 66.6193 80.4134 67.5142 80.5554 68.5369H78.0412C77.8494 67.7912 77.4233 67.1307 76.7628 66.5554C76.1094 65.973 75.2287 65.6818 74.1207 65.6818C73.1406 65.6818 72.2813 65.9375 71.5426 66.4489C70.8111 66.9531 70.2393 67.6669 69.8274 68.5902C69.4226 69.5064 69.2202 70.5824 69.2202 71.8182C69.2202 73.0824 69.419 74.1832 69.8168 75.1207C70.2216 76.0582 70.7898 76.7862 71.5213 77.3047C72.2599 77.8232 73.1264 78.0824 74.1207 78.0824C74.7741 78.0824 75.3672 77.9688 75.8999 77.7415C76.4325 77.5142 76.8835 77.1875 77.2528 76.7614C77.6222 76.3352 77.8849 75.8239 78.0412 75.2273H80.5554C80.4134 76.1932 80.0618 77.0632 79.5007 77.8374C78.9467 78.6044 78.2116 79.2152 77.2955 79.6697C76.3864 80.1172 75.3281 80.3409 74.1207 80.3409ZM91.3473 63.6364V65.767H82.8672V63.6364H91.3473ZM85.3388 59.7159H87.853V75.3125C87.853 76.0227 87.956 76.5554 88.1619 76.9105C88.375 77.2585 88.6449 77.4929 88.9716 77.6136C89.3054 77.7273 89.657 77.7841 90.0263 77.7841C90.3033 77.7841 90.5305 77.7699 90.7081 77.7415C90.8857 77.706 91.0277 77.6776 91.1342 77.6562L91.6456 79.9148C91.4751 79.9787 91.2372 80.0426 90.9318 80.1065C90.6264 80.1776 90.2393 80.2131 89.7706 80.2131C89.0604 80.2131 88.3643 80.0604 87.6825 79.755C87.0078 79.4496 86.4467 78.9844 85.9993 78.3594C85.5589 77.7344 85.3388 76.946 85.3388 75.9943V59.7159Z" fill="#996DFF"/>
<path d="M95.4702 80V58.1818H98.1122V67.8977H109.746V58.1818H112.388V80H109.746V70.2415H98.1122V80H95.4702ZM124.197 80.3409C122.62 80.3409 121.26 79.9929 120.117 79.2969C118.98 78.5938 118.103 77.6136 117.485 76.3565C116.875 75.0923 116.569 73.6222 116.569 71.946C116.569 70.2699 116.875 68.7926 117.485 67.5142C118.103 66.2287 118.963 65.2273 120.064 64.5099C121.172 63.7855 122.464 63.4233 123.941 63.4233C124.794 63.4233 125.635 63.5653 126.466 63.8494C127.297 64.1335 128.054 64.5952 128.735 65.2344C129.417 65.8665 129.961 66.7045 130.365 67.7486C130.77 68.7926 130.973 70.0781 130.973 71.6051V72.6705H118.359V70.4972H128.416C128.416 69.5739 128.231 68.75 127.862 68.0256C127.5 67.3011 126.981 66.7294 126.306 66.3104C125.639 65.8913 124.85 65.6818 123.941 65.6818C122.94 65.6818 122.074 65.9304 121.342 66.4276C120.618 66.9176 120.06 67.5568 119.669 68.3452C119.279 69.1335 119.083 69.9787 119.083 70.8807V72.3295C119.083 73.5653 119.297 74.6129 119.723 75.4723C120.156 76.3246 120.756 76.9744 121.523 77.4219C122.29 77.8622 123.181 78.0824 124.197 78.0824C124.858 78.0824 125.454 77.9901 125.987 77.8054C126.527 77.6136 126.992 77.3295 127.382 76.9531C127.773 76.5696 128.075 76.0937 128.288 75.5256L130.717 76.2074C130.461 77.0312 130.032 77.7557 129.428 78.3807C128.824 78.9986 128.078 79.4815 127.191 79.8295C126.303 80.1705 125.305 80.3409 124.197 80.3409ZM137.311 58.1818V80H134.797V58.1818H137.311ZM141.916 86.1364V63.6364H144.345V66.2358H144.644C144.828 65.9517 145.084 65.5895 145.411 65.1491C145.744 64.7017 146.22 64.304 146.838 63.956C147.463 63.6009 148.308 63.4233 149.374 63.4233C150.752 63.4233 151.966 63.7678 153.017 64.4567C154.068 65.1456 154.889 66.1222 155.478 67.3864C156.068 68.6506 156.362 70.142 156.362 71.8608C156.362 73.5938 156.068 75.0959 155.478 76.3672C154.889 77.6314 154.072 78.6115 153.028 79.3075C151.984 79.9964 150.78 80.3409 149.416 80.3409C148.365 80.3409 147.524 80.1669 146.892 79.8189C146.259 79.4638 145.773 79.0625 145.432 78.6151C145.091 78.1605 144.828 77.7841 144.644 77.4858H144.431V86.1364H141.916ZM144.388 71.8182C144.388 73.054 144.569 74.1442 144.931 75.0888C145.294 76.0263 145.823 76.7614 146.519 77.294C147.215 77.8196 148.067 78.0824 149.075 78.0824C150.127 78.0824 151.004 77.8054 151.707 77.2514C152.417 76.6903 152.95 75.9375 153.305 74.9929C153.667 74.0412 153.848 72.983 153.848 71.8182C153.848 70.6676 153.671 69.6307 153.316 68.7074C152.968 67.777 152.438 67.0419 151.728 66.5021C151.025 65.9553 150.141 65.6818 149.075 65.6818C148.053 65.6818 147.193 65.9411 146.497 66.4595C145.801 66.9709 145.276 67.6882 144.921 68.6115C144.566 69.5277 144.388 70.5966 144.388 71.8182Z" fill="#00B37E"/>
</svg>
