<svg width="154" height="26" viewBox="0 0 154 26" fill="none" xmlns="http://www.w3.org/2000/svg">
<path fill-rule="evenodd" clip-rule="evenodd" d="M12.9339 3.43149C10.6348 3.43149 8.4295 4.32831 6.80325 5.92521C5.17695 7.52216 4.26299 9.68844 4.26299 11.9476V20.31C4.26272 20.3305 4.26657 20.3508 4.2744 20.3697C4.28222 20.3886 4.29377 20.4057 4.30829 20.4199C4.3228 20.4342 4.33997 20.4453 4.35875 20.4528C4.37753 20.4603 4.39758 20.464 4.41774 20.4637L4.4259 20.4636L12.9339 20.4637C14.0724 20.4637 15.1997 20.2435 16.2516 19.8157C17.3035 19.3878 18.2593 18.7607 19.0646 17.97C19.8698 17.1793 20.5087 16.2405 20.9446 15.2071C21.3805 14.1738 21.6048 13.0662 21.6048 11.9476C21.6048 10.829 21.3805 9.72142 20.9446 8.68808C20.5087 7.65473 19.8698 6.71593 19.0646 5.92521C18.2593 5.13449 17.3035 4.50736 16.2516 4.07952C15.1997 3.65168 14.0724 3.43149 12.9339 3.43149ZM12.9339 21.6666H4.4293C4.24621 21.6684 4.06462 21.6344 3.89507 21.5667C3.72405 21.4985 3.5688 21.3973 3.43844 21.2693C3.30809 21.1413 3.20525 20.9891 3.13593 20.8216C3.06719 20.6555 3.03275 20.4778 3.03455 20.2987V11.9476C3.03455 9.37049 4.0771 6.8986 5.9334 5.0758C7.78976 3.25295 10.3079 2.22858 12.9339 2.22858C14.2342 2.22858 15.5216 2.48006 16.7228 2.96862C17.924 3.45718 19.0153 4.17323 19.9344 5.0758C20.8536 5.97837 21.5826 7.04979 22.08 8.22883C22.5773 9.40788 22.8333 10.6715 22.8333 11.9476C22.8333 13.2237 22.5773 14.4873 22.08 15.6664C21.5826 16.8454 20.8536 17.9168 19.9344 18.8194C19.0153 19.722 17.924 20.438 16.7228 20.9266C15.5216 21.4151 14.2342 21.6666 12.9339 21.6666Z" fill="#00B37E"/>
<path fill-rule="evenodd" clip-rule="evenodd" d="M9.09015 10.7583C9.09015 10.4262 9.36515 10.1569 9.70437 10.1569H15.7599C16.0991 10.1569 16.3741 10.4262 16.3741 10.7583C16.3741 11.0905 16.0991 11.3598 15.7599 11.3598H9.70437C9.36515 11.3598 9.09015 11.0905 9.09015 10.7583Z" fill="#996DFF"/>
<path fill-rule="evenodd" clip-rule="evenodd" d="M9.09015 13.9297C9.09015 13.5975 9.36515 13.3282 9.70437 13.3282H15.7599C16.0991 13.3282 16.3741 13.5975 16.3741 13.9297C16.3741 14.2619 16.0991 14.5311 15.7599 14.5311H9.70437C9.36515 14.5311 9.09015 14.2619 9.09015 13.9297Z" fill="#996DFF"/>
<path d="M40.6591 6.90909C40.5568 6.04545 40.142 5.375 39.4148 4.89773C38.6875 4.42045 37.7955 4.18182 36.7386 4.18182C35.9659 4.18182 35.2898 4.30682 34.7102 4.55682C34.1364 4.80682 33.6875 5.15057 33.3636 5.58807C33.0455 6.02557 32.8864 6.52273 32.8864 7.07954C32.8864 7.54545 32.9972 7.94602 33.2188 8.28125C33.446 8.6108 33.7358 8.88636 34.0881 9.10795C34.4403 9.32386 34.8097 9.50284 35.196 9.64489C35.5824 9.78125 35.9375 9.89205 36.2614 9.97727L38.0341 10.4545C38.4886 10.5739 38.9943 10.7386 39.5511 10.9489C40.1136 11.1591 40.6506 11.446 41.1619 11.8097C41.679 12.1676 42.1051 12.6278 42.4403 13.1903C42.7756 13.7528 42.9432 14.4432 42.9432 15.2614C42.9432 16.2045 42.696 17.0568 42.2017 17.8182C41.7131 18.5795 40.9972 19.1847 40.054 19.6335C39.1165 20.0824 37.9773 20.3068 36.6364 20.3068C35.3864 20.3068 34.304 20.1051 33.3892 19.7017C32.4801 19.2983 31.7642 18.7358 31.2415 18.0142C30.7244 17.2926 30.4318 16.4545 30.3636 15.5H32.5455C32.6023 16.1591 32.8239 16.7045 33.2102 17.1364C33.6023 17.5625 34.0966 17.8807 34.6932 18.0909C35.2955 18.2955 35.9432 18.3977 36.6364 18.3977C37.4432 18.3977 38.1676 18.267 38.8097 18.0057C39.4517 17.7386 39.9602 17.3693 40.3352 16.8977C40.7102 16.4205 40.8977 15.8636 40.8977 15.2273C40.8977 14.6477 40.7358 14.1761 40.4119 13.8125C40.0881 13.4489 39.6619 13.1534 39.1335 12.9261C38.6051 12.6989 38.0341 12.5 37.4205 12.3295L35.2727 11.7159C33.9091 11.3239 32.8295 10.7642 32.0341 10.0369C31.2386 9.30966 30.8409 8.35795 30.8409 7.18182C30.8409 6.20454 31.1051 5.35227 31.6335 4.625C32.1676 3.89205 32.8835 3.32386 33.7812 2.92045C34.6847 2.51136 35.6932 2.30682 36.8068 2.30682C37.9318 2.30682 38.9318 2.50852 39.8068 2.91193C40.6818 3.30966 41.375 3.85511 41.8864 4.54829C42.4034 5.24148 42.6761 6.02841 42.7045 6.90909H40.6591ZM51.6342 20.2727C50.3729 20.2727 49.2848 19.9943 48.37 19.4375C47.4609 18.875 46.7592 18.0909 46.2649 17.0852C45.7763 16.0739 45.532 14.8977 45.532 13.5568C45.532 12.2159 45.7763 11.0341 46.2649 10.0114C46.7592 8.98295 47.4467 8.18182 48.3274 7.60795C49.2138 7.02841 50.2479 6.73864 51.4297 6.73864C52.1115 6.73864 52.7848 6.85227 53.4496 7.07954C54.1143 7.30682 54.7195 7.67614 55.2649 8.1875C55.8104 8.69318 56.245 9.36364 56.5689 10.1989C56.8928 11.0341 57.0547 12.0625 57.0547 13.2841V14.1364H46.9638V12.3977H55.0092C55.0092 11.6591 54.8615 11 54.5661 10.4205C54.2763 9.84091 53.8615 9.38352 53.3217 9.0483C52.7876 8.71307 52.157 8.54545 51.4297 8.54545C50.6286 8.54545 49.9354 8.74432 49.3501 9.14205C48.7706 9.53409 48.3246 10.0455 48.0121 10.6761C47.6996 11.3068 47.5433 11.983 47.5433 12.7045V13.8636C47.5433 14.8523 47.7138 15.6903 48.0547 16.3778C48.4013 17.0597 48.8814 17.5795 49.495 17.9375C50.1087 18.2898 50.8217 18.4659 51.6342 18.4659C52.1626 18.4659 52.6399 18.392 53.0661 18.2443C53.4979 18.0909 53.87 17.8636 54.1825 17.5625C54.495 17.2557 54.7365 16.875 54.907 16.4205L56.8501 16.9659C56.6456 17.625 56.3018 18.2045 55.8189 18.7045C55.3359 19.1989 54.7393 19.5852 54.0291 19.8636C53.3189 20.1364 52.5206 20.2727 51.6342 20.2727ZM62.1257 2.54545V20H60.1143V2.54545H62.1257ZM71.2983 20.2727C70.0369 20.2727 68.9489 19.9943 68.0341 19.4375C67.125 18.875 66.4233 18.0909 65.929 17.0852C65.4403 16.0739 65.196 14.8977 65.196 13.5568C65.196 12.2159 65.4403 11.0341 65.929 10.0114C66.4233 8.98295 67.1108 8.18182 67.9915 7.60795C68.8778 7.02841 69.9119 6.73864 71.0938 6.73864C71.7756 6.73864 72.4489 6.85227 73.1136 7.07954C73.7784 7.30682 74.3835 7.67614 74.929 8.1875C75.4744 8.69318 75.9091 9.36364 76.233 10.1989C76.5568 11.0341 76.7188 12.0625 76.7188 13.2841V14.1364H66.6278V12.3977H74.6733C74.6733 11.6591 74.5256 11 74.2301 10.4205C73.9403 9.84091 73.5256 9.38352 72.9858 9.0483C72.4517 8.71307 71.821 8.54545 71.0938 8.54545C70.2926 8.54545 69.5994 8.74432 69.0142 9.14205C68.4347 9.53409 67.9886 10.0455 67.6761 10.6761C67.3636 11.3068 67.2074 11.983 67.2074 12.7045V13.8636C67.2074 14.8523 67.3778 15.6903 67.7188 16.3778C68.0653 17.0597 68.5455 17.5795 69.1591 17.9375C69.7727 18.2898 70.4858 18.4659 71.2983 18.4659C71.8267 18.4659 72.304 18.392 72.7301 18.2443C73.1619 18.0909 73.5341 17.8636 73.8466 17.5625C74.1591 17.2557 74.4006 16.875 74.571 16.4205L76.5142 16.9659C76.3097 17.625 75.9659 18.2045 75.483 18.7045C75 19.1989 74.4034 19.5852 73.6932 19.8636C72.983 20.1364 72.1847 20.2727 71.2983 20.2727ZM85.0966 20.2727C83.8693 20.2727 82.8125 19.983 81.9261 19.4034C81.0398 18.8239 80.358 18.0256 79.8807 17.0085C79.4034 15.9915 79.1648 14.8295 79.1648 13.5227C79.1648 12.1932 79.4091 11.0199 79.8977 10.0028C80.392 8.98011 81.0795 8.18182 81.9602 7.60795C82.8466 7.02841 83.8807 6.73864 85.0625 6.73864C85.983 6.73864 86.8125 6.90909 87.5511 7.25C88.2898 7.59091 88.8949 8.06818 89.3665 8.68182C89.8381 9.29545 90.1307 10.0114 90.2443 10.8295H88.233C88.0795 10.233 87.7386 9.70455 87.2102 9.24432C86.6875 8.77841 85.983 8.54545 85.0966 8.54545C84.3125 8.54545 83.625 8.75 83.0341 9.15909C82.4489 9.5625 81.9915 10.1335 81.6619 10.8722C81.3381 11.6051 81.1761 12.4659 81.1761 13.4545C81.1761 14.4659 81.3352 15.3466 81.6534 16.0966C81.9773 16.8466 82.4318 17.429 83.017 17.8438C83.608 18.2585 84.3011 18.4659 85.0966 18.4659C85.6193 18.4659 86.0938 18.375 86.5199 18.1932C86.946 18.0114 87.3068 17.75 87.6023 17.4091C87.8977 17.0682 88.108 16.6591 88.233 16.1818H90.2443C90.1307 16.9545 89.8494 17.6506 89.4006 18.2699C88.9574 18.8835 88.3693 19.3722 87.6364 19.7358C86.9091 20.0938 86.0625 20.2727 85.0966 20.2727ZM98.8778 6.90909V8.61364H92.0938V6.90909H98.8778ZM94.071 3.77273H96.0824V16.25C96.0824 16.8182 96.1648 17.2443 96.3295 17.5284C96.5 17.8068 96.7159 17.9943 96.9773 18.0909C97.2443 18.1818 97.5256 18.2273 97.821 18.2273C98.0426 18.2273 98.2244 18.2159 98.3665 18.1932C98.5085 18.1648 98.6222 18.142 98.7074 18.125L99.1165 19.9318C98.9801 19.983 98.7898 20.0341 98.5455 20.0852C98.3011 20.142 97.9915 20.1705 97.6165 20.1705C97.0483 20.1705 96.4915 20.0483 95.946 19.804C95.4063 19.5597 94.9574 19.1875 94.5994 18.6875C94.2472 18.1875 94.071 17.5568 94.071 16.7955V3.77273Z" fill="#996DFF"/>
<path d="M102.176 20V2.54545H104.29V10.3182H113.597V2.54545H115.71V20H113.597V12.1932H104.29V20H102.176ZM125.158 20.2727C123.896 20.2727 122.808 19.9943 121.893 19.4375C120.984 18.875 120.283 18.0909 119.788 17.0852C119.3 16.0739 119.055 14.8977 119.055 13.5568C119.055 12.2159 119.3 11.0341 119.788 10.0114C120.283 8.98295 120.97 8.18182 121.851 7.60795C122.737 7.02841 123.771 6.73864 124.953 6.73864C125.635 6.73864 126.308 6.85227 126.973 7.07954C127.638 7.30682 128.243 7.67614 128.788 8.1875C129.334 8.69318 129.768 9.36364 130.092 10.1989C130.416 11.0341 130.578 12.0625 130.578 13.2841V14.1364H120.487V12.3977H128.533C128.533 11.6591 128.385 11 128.089 10.4205C127.8 9.84091 127.385 9.38352 126.845 9.0483C126.311 8.71307 125.68 8.54545 124.953 8.54545C124.152 8.54545 123.459 8.74432 122.874 9.14205C122.294 9.53409 121.848 10.0455 121.536 10.6761C121.223 11.3068 121.067 11.983 121.067 12.7045V13.8636C121.067 14.8523 121.237 15.6903 121.578 16.3778C121.925 17.0597 122.405 17.5795 123.018 17.9375C123.632 18.2898 124.345 18.4659 125.158 18.4659C125.686 18.4659 126.163 18.392 126.589 18.2443C127.021 18.0909 127.393 17.8636 127.706 17.5625C128.018 17.2557 128.26 16.875 128.43 16.4205L130.374 16.9659C130.169 17.625 129.825 18.2045 129.342 18.7045C128.859 19.1989 128.263 19.5852 127.553 19.8636C126.842 20.1364 126.044 20.2727 125.158 20.2727ZM135.649 2.54545V20H133.638V2.54545H135.649ZM139.333 24.9091V6.90909H141.276V8.98864H141.515C141.663 8.76136 141.867 8.47159 142.129 8.11932C142.396 7.76136 142.776 7.44318 143.271 7.16477C143.771 6.88068 144.447 6.73864 145.299 6.73864C146.401 6.73864 147.373 7.0142 148.214 7.56534C149.055 8.11648 149.711 8.89773 150.183 9.90909C150.654 10.9205 150.89 12.1136 150.89 13.4886C150.89 14.875 150.654 16.0767 150.183 17.0938C149.711 18.1051 149.058 18.8892 148.222 19.446C147.387 19.9972 146.424 20.2727 145.333 20.2727C144.492 20.2727 143.819 20.1335 143.313 19.8551C142.808 19.571 142.418 19.25 142.146 18.892C141.873 18.5284 141.663 18.2273 141.515 17.9886H141.344V24.9091H139.333ZM141.31 13.4545C141.31 14.4432 141.455 15.3153 141.745 16.071C142.035 16.821 142.458 17.4091 143.015 17.8352C143.572 18.2557 144.254 18.4659 145.06 18.4659C145.901 18.4659 146.603 18.2443 147.165 17.8011C147.734 17.3523 148.16 16.75 148.444 15.9943C148.734 15.233 148.879 14.3864 148.879 13.4545C148.879 12.5341 148.737 11.7045 148.452 10.9659C148.174 10.2216 147.751 9.63352 147.183 9.2017C146.62 8.7642 145.913 8.54545 145.06 8.54545C144.242 8.54545 143.555 8.75284 142.998 9.16761C142.441 9.5767 142.021 10.1506 141.737 10.8892C141.452 11.6222 141.31 12.4773 141.31 13.4545Z" fill="#00B37E"/>
</svg>
